<svg width="611" height="314" viewBox="0 0 611 314" fill="none" xmlns="http://www.w3.org/2000/svg">
<path d="M0 21.0783V293.078C0 304.124 8.9543 313.078 20 313.078H45C56.0457 313.078 65 304.124 65 293.078V98.3317C65 79.5107 88.6301 71.1094 100.511 85.7063L153.824 151.204C162.039 161.298 177.554 160.98 185.35 150.559L230.485 90.2225C242.006 74.8219 266.5 82.9698 266.5 102.203V293.078C266.5 304.124 275.454 313.078 286.5 313.078H324.535C329.349 313.078 334.002 311.341 337.639 308.187L459.059 202.87C466.285 196.601 476.939 196.328 484.478 202.218L578.686 275.829C591.817 286.089 611 276.733 611 260.07V192.078V165.35C611 152.77 599.589 143.209 587.142 145.033C530.612 153.322 398.545 165.608 471.5 85.0783C563 -15.9216 332 1.07828 332 1.07828H166H20C8.9543 1.07828 0 10.0326 0 21.0783Z" fill="url(#paint0_linear_4_2)"/>
<defs>
<linearGradient id="paint0_linear_4_2" x1="10.5" y1="157" x2="556.5" y2="168.5" gradientUnits="userSpaceOnUse">
<stop stop-color="white"/>
<stop offset="1" stop-color="#22D3EE"/>
</linearGradient>
</defs>
</svg>
